<svg xmlns="http://www.w3.org/2000/svg" width="500" height="260" viewBox="0 0 500 260" role="img" aria-label="KCL at a node">
  <rect width="500" height="260" fill="#fafbfc"/>
<path d="M 125.45 62.51 L 244.55 117.49" stroke="green" stroke-width="3" stroke-linecap="round" fill="none"/><polygon points="189.99,92.30 182.31,82.70 177.70,92.69" fill="#ffffff" stroke="green" stroke-width="1.2" stroke-linejoin="round"/><path d="M 125.11 196.86 L 244.89 123.14" stroke="green" stroke-width="3" stroke-linecap="round" fill="none"/><polygon points="189.68,157.12 177.43,158.20 183.20,167.57" fill="#ffffff" stroke="green" stroke-width="1.2" stroke-linejoin="round"/><path d="M 255.45 117.49 L 374.55 62.51" stroke="red" stroke-width="3" stroke-linecap="round" fill="none"/><polygon points="319.99,87.70 307.70,87.31 312.31,97.30" fill="#ffffff" stroke="red" stroke-width="1.2" stroke-linejoin="round"/><path d="M 255.11 123.14 L 374.89 196.86" stroke="red" stroke-width="3" stroke-linecap="round" fill="none"/><polygon points="319.68,162.88 313.20,152.43 307.43,161.80" fill="#ffffff" stroke="red" stroke-width="1.2" stroke-linejoin="round"/><circle cx="250" cy="120" r="6" fill="#1e3a5f" stroke="none"/>
<circle cx="250" cy="120" r="2.4000000000000004" fill="#ffffff" opacity="0.22"/>
<text x="250.00" y="102.00" text-anchor="middle" font-family="sans-serif" font-size="14" fill="#2d3748" font-weight="bold">A</text><text x="100" y="55" text-anchor="middle" font-family="sans-serif" font-size="12" fill="green">in</text><text x="100" y="210" text-anchor="middle" font-family="sans-serif" font-size="12" fill="green">in</text><text x="400" y="55" text-anchor="middle" font-family="sans-serif" font-size="12" fill="red">out</text><text x="400" y="210" text-anchor="middle" font-family="sans-serif" font-size="12" fill="red">out</text><text x="250" y="245" text-anchor="middle" font-family="sans-serif" font-size="14" fill="#2d3748">Σ i</text><text x="275" y="248" text-anchor="start" font-family="sans-serif" font-size="10" fill="#2d3748">in</text><text x="290" y="245" text-anchor="start" font-family="sans-serif" font-size="14" fill="#2d3748">= Σ i</text><text x="330" y="248" text-anchor="start" font-family="sans-serif" font-size="10" fill="#2d3748">out</text></svg>
