<svg xmlns="http://www.w3.org/2000/svg" width="640" height="240" viewBox="0 0 640 240" role="img" aria-label="Twig and link in a spanning tree">
  <rect width="640" height="240" fill="#fafbfc"/>
<path d="M 125.37 117.32 L 234.63 62.68" stroke="#2b6cb0" stroke-width="4" stroke-linecap="round" fill="none"/><rect x="177.16" y="96.31" width="20" height="16" rx="3" fill="#ffffff" stroke="#2b6cb0" stroke-width="0.8"/><text x="187.16" y="104.31" text-anchor="middle" dominant-baseline="middle" font-family="sans-serif" font-size="12" fill="#2b6cb0" font-weight="bold">1</text><path d="M 240.00 66.00 L 240.00 174.00" stroke="#2b6cb0" stroke-width="4" stroke-linecap="round" fill="none"/><rect x="214.00" y="112.00" width="20" height="16" rx="3" fill="#ffffff" stroke="#2b6cb0" stroke-width="0.8"/><text x="224.00" y="120.00" text-anchor="middle" dominant-baseline="middle" font-family="sans-serif" font-size="12" fill="#2b6cb0" font-weight="bold">2</text><path d="M 234.63 177.32 L 125.37 122.68" stroke="#e53e3e" stroke-width="3" stroke-linecap="round" fill="none"/><rect x="177.16" y="127.69" width="20" height="16" rx="3" fill="#ffffff" stroke="#e53e3e" stroke-width="0.8"/><text x="187.16" y="135.69" text-anchor="middle" dominant-baseline="middle" font-family="sans-serif" font-size="12" fill="#e53e3e" font-weight="bold">3</text><circle cx="120" cy="120" r="6" fill="#1e3a5f" stroke="none"/>
<circle cx="120" cy="120" r="2.4000000000000004" fill="#ffffff" opacity="0.22"/>
<text x="120.00" y="102.00" text-anchor="middle" font-family="sans-serif" font-size="14" fill="#2d3748" font-weight="bold">A</text><circle cx="240" cy="60" r="6" fill="#1e3a5f" stroke="none"/>
<circle cx="240" cy="60" r="2.4000000000000004" fill="#ffffff" opacity="0.22"/>
<text x="240.00" y="42.00" text-anchor="middle" font-family="sans-serif" font-size="14" fill="#2d3748" font-weight="bold">B</text><circle cx="240" cy="180" r="6" fill="#1e3a5f" stroke="none"/>
<circle cx="240" cy="180" r="2.4000000000000004" fill="#ffffff" opacity="0.22"/>
<text x="240.00" y="198.00" text-anchor="middle" font-family="sans-serif" font-size="14" fill="#2d3748" font-weight="bold">C</text><rect x="360" y="80" width="20" height="4" fill="#2b6cb0"/><text x="390" y="88" text-anchor="start" font-family="sans-serif" font-size="12" fill="#2d3748">twig (in tree)</text><rect x="360" y="110" width="20" height="4" fill="#e53e3e"/><text x="390" y="118" text-anchor="start" font-family="sans-serif" font-size="12" fill="#2d3748">link (co-tree)</text></svg>
