<svg xmlns="http://www.w3.org/2000/svg" viewBox="0 0 1200 720"
  role="img" aria-labelledby="title desc">
  <title id="title">อ่านเมทริกซ์ B จากทรี</title>
  <desc id="desc">แผนภาพทรีสมมาตรและตารางเครื่องหมายของกิ่ง 1 2 3</desc>
  <defs>
    <marker id="arrowBlue" markerUnits="userSpaceOnUse" markerWidth="18" markerHeight="18" refX="16" refY="9" orient="auto">
      <path d="M0,0 L18,9 L0,18 Z" fill="#2563eb"/>
    </marker>
    <marker id="arrowRed" markerUnits="userSpaceOnUse" markerWidth="18" markerHeight="18" refX="16" refY="9" orient="auto">
      <path d="M0,0 L18,9 L0,18 Z" fill="#dc2626"/>
    </marker>
    <marker id="arrowDark" markerUnits="userSpaceOnUse" markerWidth="18" markerHeight="18" refX="16" refY="9" orient="auto">
      <path d="M0,0 L18,9 L0,18 Z" fill="#172033"/>
    </marker>
    <filter id="shadow" x="-15%" y="-15%" width="130%" height="140%">
      <feDropShadow dx="0" dy="7" stdDeviation="9" flood-color="#0f172a" flood-opacity=".12"/>
    </filter>
    <style>
      .bg { fill:#f8fafc; } .paper { fill:#fff; stroke:#dbe3ee; stroke-width:2; }
      .title { font:700 31px 'Noto Sans Thai','Sarabun','Segoe UI',sans-serif; fill:#0f172a; }
      .head { font:700 24px 'Noto Sans Thai','Sarabun','Segoe UI',sans-serif; fill:#172033; }
      .body { font:500 20px 'Noto Sans Thai','Sarabun','Segoe UI',sans-serif; fill:#334155; }
      .small { font:500 17px 'Noto Sans Thai','Sarabun','Segoe UI',sans-serif; fill:#64748b; }
      .math { font:italic 25px Georgia,'Times New Roman',serif; fill:#172033; }
      .mathBig { font:italic 32px Georgia,'Times New Roman',serif; font-weight:700; fill:#172033; }
      .chip { font:700 19px 'Noto Sans Thai','Sarabun','Segoe UI',sans-serif; }
      .wire { fill:none; stroke:#172033; stroke-width:7; stroke-linecap:round; stroke-linejoin:round; }
      .tree { fill:none; stroke:#172033; stroke-width:11; stroke-linecap:round; }
      .link { fill:none; stroke:#dc2626; stroke-width:8; stroke-linecap:round; }
      .guide { fill:none; stroke:#94a3b8; stroke-width:2; stroke-dasharray:7 7; }
    </style>
  </defs>
  <rect class="bg" width="1200" height="720" rx="28"/>

  <text class="title" x="60" y="65">อ่าน B จากรูปทรี: ตาม ตาม สวน</text>
  <text class="small" x="60" y="100">ลำดับคอลัมน์ต้องตรงกับเวกเตอร์กิ่ง [1, 2, 3] เสมอ</text>
  <g transform="translate(60 130)" filter="url(#shadow)">
    <rect class="paper" x="0" y="0" width="700" height="500" rx="24"/>
    <circle cx="120" cy="120" r="13" fill="#172033"/>
    <circle cx="580" cy="120" r="13" fill="#dc2626"/>
    <circle cx="350" cy="405" r="13" fill="#dc2626"/>
    <text class="head" x="85" y="102">A</text>
    <text class="head" x="602" y="102">B</text>
    <text class="head" x="367" y="443">O</text>
    <path class="tree" d="M568 120 H139"/>
    <path class="tree" d="M342 394 L129 134"/>
    <path class="link" d="M359 394 L571 134"/>
    <path d="M455 120 H335" fill="none" stroke="#172033" stroke-width="7" marker-end="url(#arrowDark)"/>
    <path d="M290 330 L222 247" fill="none" stroke="#172033" stroke-width="7" marker-end="url(#arrowDark)"/>
    <path d="M426 311 L500 220" fill="none" stroke="#dc2626" stroke-width="7" marker-end="url(#arrowRed)"/>
    <text class="mathBig" x="350" y="91">2</text>
    <text class="mathBig" x="205" y="300">3</text>
    <text class="mathBig" x="507" y="300" fill="#dc2626">1</text>
    <path d="M263 299 A118 118 0 1 1 439 298" fill="none" stroke="#2563eb" stroke-width="5" stroke-dasharray="10 8" marker-end="url(#arrowBlue)"/>
    <text class="mathBig" x="350" y="285" text-anchor="middle" fill="#2563eb">j₁</text>
  </g>
  <g transform="translate(805 145)">
    <text class="head" x="0" y="0">ใช้ดินสอวงทีละกิ่ง</text>
    <rect x="0" y="40" width="330" height="80" rx="16" fill="#ecfdf5" stroke="#6ee7b7" stroke-width="2"/>
    <text class="chip" x="25" y="77" fill="#047857">กิ่ง 1</text><text class="body" x="115" y="77">O → B</text>
    <text class="chip" x="285" y="87" fill="#047857">+1</text>
    <rect x="0" y="140" width="330" height="80" rx="16" fill="#ecfdf5" stroke="#6ee7b7" stroke-width="2"/>
    <text class="chip" x="25" y="177" fill="#047857">กิ่ง 2</text><text class="body" x="115" y="177">B → A</text>
    <text class="chip" x="285" y="187" fill="#047857">+1</text>
    <rect x="0" y="240" width="330" height="80" rx="16" fill="#fff1f2" stroke="#fda4af" stroke-width="2"/>
    <text class="chip" x="25" y="277" fill="#be123c">กิ่ง 3</text><text class="body" x="115" y="277">A → O</text>
    <text class="chip" x="285" y="287" fill="#be123c">−1</text>
    <rect x="0" y="350" width="330" height="108" rx="18" fill="#eff6ff" stroke="#60a5fa" stroke-width="3"/>
    <text class="small" x="165" y="385" text-anchor="middle">ผลที่อ่านจากภาพ</text>
    <text class="mathBig" x="165" y="435" text-anchor="middle">B = [1  1  −1]</text>
  </g>

</svg>