<svg xmlns="http://www.w3.org/2000/svg" viewBox="0 0 1200 720"
  role="img" aria-labelledby="title desc">
  <title id="title">โต๊ะคำนวณเมทริกซ์</title>
  <desc id="desc">เมทริกซ์ตั้งต้นและการคูณสามก้อนเพื่อหาสมการวงรอบ</desc>
  <defs>
    <marker id="arrowBlue" markerUnits="userSpaceOnUse" markerWidth="18" markerHeight="18" refX="16" refY="9" orient="auto">
      <path d="M0,0 L18,9 L0,18 Z" fill="#2563eb"/>
    </marker>
    <marker id="arrowRed" markerUnits="userSpaceOnUse" markerWidth="18" markerHeight="18" refX="16" refY="9" orient="auto">
      <path d="M0,0 L18,9 L0,18 Z" fill="#dc2626"/>
    </marker>
    <marker id="arrowDark" markerUnits="userSpaceOnUse" markerWidth="18" markerHeight="18" refX="16" refY="9" orient="auto">
      <path d="M0,0 L18,9 L0,18 Z" fill="#172033"/>
    </marker>
    <filter id="shadow" x="-15%" y="-15%" width="130%" height="140%">
      <feDropShadow dx="0" dy="7" stdDeviation="9" flood-color="#0f172a" flood-opacity=".12"/>
    </filter>
    <style>
      .bg { fill:#f8fafc; } .paper { fill:#fff; stroke:#dbe3ee; stroke-width:2; }
      .title { font:700 31px 'Noto Sans Thai','Sarabun','Segoe UI',sans-serif; fill:#0f172a; }
      .head { font:700 24px 'Noto Sans Thai','Sarabun','Segoe UI',sans-serif; fill:#172033; }
      .body { font:500 20px 'Noto Sans Thai','Sarabun','Segoe UI',sans-serif; fill:#334155; }
      .small { font:500 17px 'Noto Sans Thai','Sarabun','Segoe UI',sans-serif; fill:#64748b; }
      .math { font:italic 25px Georgia,'Times New Roman',serif; fill:#172033; }
      .mathBig { font:italic 32px Georgia,'Times New Roman',serif; font-weight:700; fill:#172033; }
      .chip { font:700 19px 'Noto Sans Thai','Sarabun','Segoe UI',sans-serif; }
      .wire { fill:none; stroke:#172033; stroke-width:7; stroke-linecap:round; stroke-linejoin:round; }
      .tree { fill:none; stroke:#172033; stroke-width:11; stroke-linecap:round; }
      .link { fill:none; stroke:#dc2626; stroke-width:8; stroke-linecap:round; }
      .guide { fill:none; stroke:#94a3b8; stroke-width:2; stroke-dasharray:7 7; }
    </style>
  </defs>
  <rect class="bg" width="1200" height="720" rx="28"/>

  <text class="title" x="60" y="65">Matrix workbench: กรอกช่อง แล้วคูณทีละก้อน</text>
  <text class="small" x="60" y="100">เมทริกซ์ทุกตัวเรียงกิ่ง [1, 2, 3] เหมือนกัน จึงลดความผิดพลาดเรื่อง R และเครื่องหมาย</text>
  <g filter="url(#shadow)">
    <rect class="paper" x="55" y="140" width="1090" height="190" rx="24"/>
    <text class="head" x="90" y="185">โต๊ะเตรียม</text>
    <rect x="90" y="215" width="225" height="78" rx="15" fill="#eff6ff"/>
    <text class="math" x="202" y="264" text-anchor="middle">B = [1  1  −1]</text>
    <rect x="335" y="215" width="290" height="78" rx="15" fill="#f5f3ff"/>
    <text class="math" x="480" y="264" text-anchor="middle">Z = diag(R₃,R₂,R₁)</text>
    <rect x="645" y="215" width="210" height="78" rx="15" fill="#ecfdf5"/>
    <text class="math" x="750" y="264" text-anchor="middle">iₛ = [iₛ iₛ 0]ᵀ</text>
    <rect x="875" y="215" width="230" height="78" rx="15" fill="#fff1f2"/>
    <text class="math" x="990" y="264" text-anchor="middle">vₛ = [0 0 −vₛ]ᵀ</text>

    <rect class="paper" x="55" y="365" width="330" height="215" rx="24"/>
    <circle cx="108" cy="418" r="26" fill="#2563eb"/>
    <text x="108" y="427" text-anchor="middle" font-size="24" font-weight="700" fill="#fff">1</text>
    <text class="head" x="150" y="427">ก้อนซ้าย</text>
    <text class="mathBig" x="220" y="490" text-anchor="middle">BZBᵀ = Rₜ</text>
    <text class="small" x="220" y="535" text-anchor="middle">Rₜ = R₁ + R₂ + R₃</text>

    <rect class="paper" x="435" y="365" width="330" height="215" rx="24"/>
    <circle cx="488" cy="418" r="26" fill="#059669"/>
    <text x="488" y="427" text-anchor="middle" font-size="24" font-weight="700" fill="#fff">2</text>
    <text class="head" x="530" y="427">Norton drive</text>
    <text class="mathBig" x="600" y="490" text-anchor="middle">BZ iₛ</text>
    <text class="small" x="600" y="535" text-anchor="middle">= (R₂ + R₃)iₛ</text>

    <rect class="paper" x="815" y="365" width="330" height="215" rx="24"/>
    <circle cx="868" cy="418" r="26" fill="#dc2626"/>
    <text x="868" y="427" text-anchor="middle" font-size="24" font-weight="700" fill="#fff">3</text>
    <text class="head" x="910" y="427">Thévenin drive</text>
    <text class="mathBig" x="980" y="490" text-anchor="middle">−Bvₛ</text>
    <text class="small" x="980" y="535" text-anchor="middle">= −vₛ</text>
  </g>
  <path d="M385 472 H426" stroke="#94a3b8" stroke-width="4" marker-end="url(#arrowDark)"/>
  <path d="M765 472 H806" stroke="#94a3b8" stroke-width="4" marker-end="url(#arrowDark)"/>
  <rect x="235" y="620" width="730" height="74" rx="18" fill="#0f172a"/>
  <text x="600" y="668" text-anchor="middle" font-family="Georgia,serif" font-size="30" font-style="italic" fill="#fff">Rₜj₁ = (R₂ + R₃)iₛ − vₛ</text>

</svg>